<?xml version="1.0" encoding="UTF-8"?>
<svg version="1.1" xmlns="http://www.w3.org/2000/svg" width="160" height="40">
<path d="M0 0 C5.36847788 2.84422669 9.45952886 7.73593036 11.76953125 13.3125 C12.58592665 19.42597254 12.28441557 25.11520151 9.1796875 30.5234375 C5.92526244 34.65232027 1.73707169 37.65665319 -3.23046875 39.3125 C-9.44405268 39.81973134 -15.01940948 40.10236129 -20.23046875 36.3125 C-27.06400308 29.36531021 -28.59216633 25.63325418 -28.51171875 15.80859375 C-28.03791345 9.91893061 -26.08401842 7.02703344 -21.73046875 3 C-15.15685088 -1.43719207 -7.73131242 -2.3830315 0 0 Z M-23.23046875 10.3125 C-25.36497229 14.58150707 -25.81299804 18.61527971 -25.23046875 23.3125 C-23.49415633 28.23205186 -20.74279292 31.6835807 -16.23046875 34.3125 C-11.65677373 36.17585723 -7.72407108 36.81628379 -2.98046875 35.25 C2.06819395 32.97709608 5.69039176 29.46435006 7.76953125 24.3125 C8.08460812 21.59562503 8.08460812 21.59562503 8.01953125 18.75 C8.0246875 17.79996094 8.02984375 16.84992187 8.03515625 15.87109375 C7.945292 13.07150727 7.945292 13.07150727 5.76953125 10.3125 C0.15479581 11.63361422 -2.33935467 15.65702022 -5.23046875 20.3125 C-7.2257568 24.75655065 -7.42434576 28.4655747 -7.23046875 33.3125 C-7.89046875 33.3125 -8.55046875 33.3125 -9.23046875 33.3125 C-9.26914063 32.4771875 -9.26914063 32.4771875 -9.30859375 31.625 C-9.88919981 23.81320937 -11.91494996 18.0970865 -17.85546875 12.8125 C-20.23673746 10.73542576 -20.23673746 10.73542576 -23.23046875 10.3125 Z " fill="#7A6538" transform="translate(138.23046875,0.6875)"/>
<path d="M0 0 C1.98 0.495 1.98 0.495 4 1 C4 5.95 4 10.9 4 16 C7.80850575 13.71489655 10.09140717 12.12404415 13 9 C13.8971875 9.495 13.8971875 9.495 14.8125 10 C17.05386471 11.20787988 17.05386471 11.20787988 20 11 C20.433125 10.505 20.86625 10.01 21.3125 9.5 C23 8 23 8 26.1875 7.8125 C27.115625 7.874375 28.04375 7.93625 29 8 C29.66 9.65 30.32 11.3 31 13 C28.69 13 26.38 13 24 13 C24 13.66 24 14.32 24 15 C26.64 14.67 29.28 14.34 32 14 C31.75 16.375 31.75 16.375 31 19 C26.14165276 22.30201491 19.99983548 21.32826467 14.375 21.3125 C13.21742187 21.32861328 12.05984375 21.34472656 10.8671875 21.36132812 C9.76375 21.36197266 8.6603125 21.36261719 7.5234375 21.36328125 C6.51200684 21.36626221 5.50057617 21.36924316 4.45849609 21.37231445 C3.24154053 21.1880188 3.24154053 21.1880188 2 21 C0.04020294 18.06030441 -0.26841156 17.32577092 -0.44921875 14.0234375 C-0.49240234 13.270625 -0.53558594 12.5178125 -0.58007812 11.7421875 C-0.61552734 10.96101563 -0.65097656 10.17984375 -0.6875 9.375 C-0.73455078 8.58609375 -0.78160156 7.7971875 -0.83007812 6.984375 C-0.934515 4.99151402 -0.97269441 2.99540882 -1 1 C-0.67 0.67 -0.34 0.34 0 0 Z M13 14 C13 14.66 13 15.32 13 16 C13.66 15.67 14.32 15.34 15 15 C14.34 14.67 13.68 14.34 13 14 Z " fill="#7A6538" transform="translate(23,7)"/>
<path d="M0 0 C0.99 0 1.98 0 3 0 C4.17673198 2.35346396 4.16623866 3.8806033 4.1875 6.5 C4.20167969 7.2940625 4.21585938 8.088125 4.23046875 8.90625 C4 11 4 11 2 13 C-0.2590332 13.21118164 -0.2590332 13.21118164 -3.05078125 13.16015625 C-4.05947266 13.14919922 -5.06816406 13.13824219 -6.10742188 13.12695312 C-7.69393555 13.09504883 -7.69393555 13.09504883 -9.3125 13.0625 C-11.39185501 13.02790814 -13.4712906 12.99780604 -15.55078125 12.97265625 C-16.93777222 12.94570679 -16.93777222 12.94570679 -18.3527832 12.91821289 C-21.06627254 13.00204752 -23.39570072 13.22349255 -26 14 C-28.28239171 16.92321965 -28.28239171 16.92321965 -30 20 C-31 21 -31 21 -33.5625 21.0625 C-34.366875 21.041875 -35.17125 21.02125 -36 21 C-36.33 19.68 -36.66 18.36 -37 17 C-36.030625 16.566875 -35.06125 16.13375 -34.0625 15.6875 C-30.72268235 14.2985139 -30.72268235 14.2985139 -30 11 C-30.27571139 8.99124558 -30.60235737 6.98821313 -31 5 C-29.68 4.67 -28.36 4.34 -27 4 C-26.67 5.32 -26.34 6.64 -26 8 C-24.68 8 -23.36 8 -22 8 C-21.34 6.35 -20.68 4.7 -20 3 C-19.01 3 -18.02 3 -17 3 C-16.67 4.32 -16.34 5.64 -16 7 C-15.34 5.68 -14.68 4.36 -14 3 C-13.01 3 -12.02 3 -11 3 C-11 4.65 -11 6.3 -11 8 C-10.34 8 -9.68 8 -9 8 C-8.67 6.35 -8.34 4.7 -8 3 C-7.01 3 -6.02 3 -5 3 C-4.505 5.475 -4.505 5.475 -4 8 C-2.68 8 -1.36 8 0 8 C-0.185625 6.865625 -0.37125 5.73125 -0.5625 4.5625 C-0.706875 3.386875 -0.85125 2.21125 -1 1 C-0.67 0.67 -0.34 0.34 0 0 Z " fill="#7A6538" transform="translate(99,15)"/>
<path d="M0 0 C2.3125 -0.3125 2.3125 -0.3125 5 0 C8.3458018 3.57654676 8.32494827 7.168283 8.30078125 11.81640625 C7.9643749 14.25862894 7.26907352 15.89552916 6 18 C2.56199608 20.54666957 -0.85106275 20.50951861 -5 20 C-8 18.0625 -8 18.0625 -10 15 C-10.20008224 11.13174333 -9.73918717 7.47837434 -8 4 C-7.01 4 -6.02 4 -5 4 C-5 6.97 -5 9.94 -5 13 C-0.89776415 14.01540112 -0.89776415 14.01540112 3 13 C2.195625 12.773125 1.39125 12.54625 0.5625 12.3125 C-2 11 -2 11 -3 8.75 C-3 5.19280974 -1.7674678 3.04004461 0 0 Z M1 5 C1 5.66 1 6.32 1 7 C1.99 6.67 2.98 6.34 4 6 C3.01 5.67 2.02 5.34 1 5 Z " fill="#7A6538" transform="translate(14,16)"/>
<path d="M0 0 C0.99 0 1.98 0 3 0 C4.13896163 4.34492771 3.93100471 8.38620785 3.5625 12.8125 C3.51029297 13.50537109 3.45808594 14.19824219 3.40429688 14.91210938 C3.27560181 16.60854437 3.13863816 18.30434863 3 20 C1.68 20 0.36 20 -1 20 C-1.02888514 16.85418577 -1.04675923 13.70840531 -1.0625 10.5625 C-1.07087891 9.66466797 -1.07925781 8.76683594 -1.08789062 7.84179688 C-1.09111328 6.98779297 -1.09433594 6.13378906 -1.09765625 5.25390625 C-1.10551147 4.06776733 -1.10551147 4.06776733 -1.11352539 2.85766602 C-1 1 -1 1 0 0 Z " fill="#7A6538" transform="translate(57,7)"/>
<path d="M0 0 C0.99 0 1.98 0 3 0 C4.76462683 3.08809695 5 4.23312136 5 8 C2.69 8 0.38 8 -2 8 C-2.6875 6.25 -2.6875 6.25 -3 4 C-1.75 1.75 -1.75 1.75 0 0 Z " fill="#7A6538" transform="translate(86,9)"/>
<path d="M0 0 C-0.33 1.32 -0.66 2.64 -1 4 C-3.64 4 -6.28 4 -9 4 C-9 2.68 -9 1.36 -9 0 C-3.375 -1.125 -3.375 -1.125 0 0 Z " fill="#7A6538" transform="translate(21,10)"/>
<path d="M0 0 C1.32 0 2.64 0 4 0 C3.67 1.65 3.34 3.3 3 5 C1.68 4.67 0.36 4.34 -1 4 C-0.67 2.68 -0.34 1.36 0 0 Z " fill="#7A6538" transform="translate(98,9)"/>
</svg>
